<svg width="813" height="321" xmlns="http://www.w3.org/2000/svg" xmlns:xlink="http://www.w3.org/1999/xlink" overflow="hidden"><g><rect x="0" y="0" width="813" height="320.535" fill="#FFFFFF"/><path d="M10 160.767 161.5 9.98554 313 160.767 161.5 311.549Z" fill="#7F7F7F" fill-rule="evenodd"/><path d="M160 159.932 161.186 9.98554 313 161.266 161.186 312.547 160 159.932Z" fill="#404040" fill-rule="evenodd"/><path d="M161 68.9002C195.794 68.9002 224 90.1359 224 116.331 224 142.527 195.794 163.763 161 163.763 160.775 163.763 160.551 163.762 160.326 163.76L160.668 139.717C182.162 139.827 199.735 129.447 199.919 116.531 200.102 103.615 182.826 93.0559 161.332 92.9457 161.221 92.9451 161.111 92.9449 161 92.9449Z" fill="#71E1FF" fill-rule="evenodd"/><rect x="128" y="68.9002" width="26.0001" height="161.766" fill="#FFFFFF"/><path d="M160.285 166.154C160.659 165.404 171.756 166.129 178.053 164.41 185.017 162.858 183.677 163.28 185.396 162.503 202.786 191.42 205.661 199.923 225.385 229.173L195.818 230.177 160.285 166.154Z" fill="#FFFFFF" fill-rule="evenodd"/><text fill="#2F5597" font-family="Impact,Impact_MSFontService,sans-serif" font-weight="400" font-stretch="condensed" font-size="128" transform="matrix(1 0 0 0.998553 331.81 210)">RomCom</text></g></svg>